<svg width="25" height="25" viewBox="0 0 25 25" fill="none" xmlns="http://www.w3.org/2000/svg">
<path fill-rule="evenodd" clip-rule="evenodd" d="M12.309 10C14.6919 10 16.5105 8.1477 16.5105 6C16.5105 3.85226 14.6919 2 12.309 2C9.92606 2 8.10746 3.85226 8.10746 6C8.10746 8.1477 9.92606 10 12.309 10ZM12.309 12C15.7343 12 18.5111 9.3137 18.5111 6C18.5111 2.68629 15.7343 0 12.309 0C8.88366 0 6.1069 2.68629 6.1069 6C6.1069 9.3137 8.88366 12 12.309 12ZM12.3101 14C20.0765 14 21.9165 17.0871 24.2523 23.6754C24.4818 24.3227 23.9987 24.9999 23.3117 24.9999H1.30844C0.621477 24.9999 0.138327 24.3227 0.367817 23.6754C2.70363 17.0871 4.54371 14 12.3101 14ZM21.8758 22.9999C20.9165 20.4665 20.0853 18.878 18.9582 17.8343C17.7571 16.7221 15.9436 16 12.3101 16C8.67656 16 6.86306 16.7221 5.66196 17.8343C4.5349 18.878 3.70362 20.4665 2.74439 22.9999H21.8758Z" fill="#2C5E61"/>
</svg>
