<svg width="29" height="23" viewBox="0 0 29 23" fill="none" xmlns="http://www.w3.org/2000/svg">
<path fill-rule="evenodd" clip-rule="evenodd" d="M7.04595 2.08306C4.67491 2.62741 2.67004 4.70658 2.67004 7.6195C2.67004 10.5283 3.99013 12.7388 6.14861 14.8046C7.84057 16.424 9.96674 17.8841 12.3025 19.4883C13.0126 19.976 13.7421 20.477 14.4847 20.9998C14.5947 21.0772 14.7453 21.0772 14.8553 20.9998C15.5979 20.477 16.3274 19.976 17.0375 19.4883C19.3733 17.8841 21.4995 16.424 23.1914 14.8046C25.3499 12.7388 26.67 10.5283 26.67 7.6195C26.67 4.70658 24.6651 2.62741 22.2941 2.08306C19.9923 1.55461 17.2019 2.45773 15.5802 5.9193C15.4179 6.2658 15.062 6.4882 14.67 6.4882C14.278 6.4882 13.9221 6.2658 13.7598 5.9193C12.1381 2.45773 9.34774 1.55461 7.04595 2.08306ZM14.67 3.52486C12.5809 0.516841 9.42924 -0.45976 6.58579 0.19303C3.35962 0.9337 0.670044 3.75974 0.670044 7.6195C0.670044 11.215 2.34749 13.8936 4.7447 16.1879C6.56428 17.9293 8.87564 19.5158 11.2413 21.1396C11.9301 21.6123 12.6235 22.0883 13.3107 22.5721C14.121 23.1426 15.219 23.1426 16.0293 22.5721C16.7165 22.0883 17.4099 21.6123 18.0987 21.1396C20.4644 19.5158 22.7758 17.9293 24.5953 16.1879C26.9926 13.8936 28.67 11.215 28.67 7.6195C28.67 3.75974 25.9804 0.9337 22.7542 0.19303C19.9108 -0.45976 16.7591 0.516841 14.67 3.52486Z" fill="#2C5E61"/>
</svg>
