<svg width="285" height="88" viewBox="0 0 285 88" fill="none" xmlns="http://www.w3.org/2000/svg">
<path fill-rule="evenodd" clip-rule="evenodd" d="M175.231 48.4047H184.602C184.647 48.4047 184.647 48.4047 184.647 48.4047C184.874 49.5483 185.055 50.7377 185.236 51.927C185.236 52.0643 185.372 52.1557 185.462 52.1557H187.409C187.545 52.1557 187.681 52.0643 187.681 51.927C186.685 42.9154 184.24 37.4719 179.939 36.2825C175.638 37.4719 173.193 42.9154 172.197 51.927C172.243 52.0643 172.333 52.1557 172.469 52.1557H174.416C174.552 52.1557 174.642 52.0643 174.642 51.927C174.823 50.7377 175.004 49.5483 175.231 48.4047ZM184.149 46.026H175.729C176.634 42.5952 177.902 39.9421 179.939 38.6612C181.976 39.9421 183.244 42.5952 184.149 46.026Z" fill="white"/>
<path fill-rule="evenodd" clip-rule="evenodd" d="M85.7302 48.4048H95.1921C95.4185 49.5484 95.5996 50.7378 95.7807 51.9271C95.7807 52.0644 95.8712 52.1559 96.007 52.1559H97.9538C98.0896 52.1559 98.1801 52.0644 98.1801 51.9271C97.1841 42.9155 94.7847 37.472 90.4838 36.2826C86.1829 37.472 83.7382 42.9155 82.7422 51.9271C82.7422 52.0644 82.878 52.1559 82.9686 52.1559H84.9153C85.0511 52.1559 85.1416 52.0644 85.1869 51.9271C85.3227 50.7378 85.5491 49.5484 85.7302 48.4048ZM94.6489 46.0261H86.2734C87.1336 42.5953 88.4465 39.9422 90.4838 38.6613C92.5211 39.9422 93.7887 42.5953 94.6489 46.0261Z" fill="white"/>
<path fill-rule="evenodd" clip-rule="evenodd" d="M215.708 36.2825C220.009 37.4719 222.454 42.9154 223.45 51.927C223.45 52.0643 223.314 52.1557 223.223 52.1557H221.277C221.141 52.1557 221.05 52.0643 221.005 51.927C220.145 45.7973 218.832 40.6282 215.708 38.6612C212.63 40.6282 211.272 45.7973 210.411 51.927C210.411 52.0643 210.321 52.1557 210.185 52.1557H208.238C208.102 52.1557 208.012 52.0643 208.012 51.927C208.963 42.9154 211.407 37.4719 215.708 36.2825Z" fill="white"/>
<path fill-rule="evenodd" clip-rule="evenodd" d="M115.925 36.2825C115.925 36.2825 115.925 36.2825 115.97 36.3283H116.015C116.06 36.374 116.06 36.4198 116.06 36.4655H116.106V51.927C116.106 52.0185 115.97 52.1557 115.834 52.1557H113.887C113.752 52.1557 113.661 52.0185 113.661 51.927V38.6612H103.067V51.927C103.067 52.0185 102.977 52.1557 102.841 52.1557H100.894C100.758 52.1557 100.622 52.0185 100.622 51.927V36.5113C100.622 36.4198 100.713 36.3283 100.849 36.2825H115.925Z" fill="white"/>
<path fill-rule="evenodd" clip-rule="evenodd" d="M205.388 36.2825C205.388 36.2825 205.434 36.2825 205.434 36.3283H205.479C205.524 36.374 205.524 36.4198 205.57 36.4655V51.927C205.57 52.0185 205.479 52.1557 205.343 52.1557H203.396C203.261 52.1557 203.125 52.0185 203.125 51.927V38.6612H192.531V51.927C192.531 52.0185 192.441 52.1557 192.305 52.1557H190.358C190.222 52.1557 190.132 52.0185 190.132 51.927V36.5113C190.132 36.4198 190.222 36.3283 190.313 36.2825H205.388Z" fill="white"/>
<path fill-rule="evenodd" clip-rule="evenodd" d="M151.648 36.2825C151.784 36.2825 151.875 36.374 151.875 36.5113V38.4325C151.875 38.5697 151.784 38.6612 151.648 38.6612H138.882V43.0069H151.648C151.784 43.0069 151.875 43.1442 151.875 43.2814V45.1569C151.875 45.2941 151.784 45.4314 151.648 45.4314H138.882V49.7771H151.648C151.784 49.7771 151.875 49.8685 151.875 50.0058V51.927C151.875 52.0185 151.784 52.1557 151.648 52.1557H136.618C136.618 52.1557 136.618 52.1557 136.573 52.11C136.527 52.11 136.527 52.11 136.527 52.11C136.527 52.0643 136.482 52.0643 136.482 52.0643V52.0185H136.437V36.4655C136.437 36.4198 136.482 36.374 136.527 36.3283C136.527 36.3283 136.527 36.3283 136.573 36.3283C136.573 36.2825 136.618 36.2825 136.618 36.2825H151.648Z" fill="white"/>
<path fill-rule="evenodd" clip-rule="evenodd" d="M156.762 42.7778L156.898 42.8235L168.442 36.3279C168.578 36.2364 168.714 36.2821 168.759 36.4194L169.755 38.0661C169.8 38.1576 169.755 38.2949 169.665 38.3864L159.342 44.1959L169.665 50.0511C169.755 50.0969 169.8 50.2798 169.755 50.3713L168.759 52.0181C168.714 52.1553 168.578 52.2011 168.442 52.1096L156.898 45.6139L156.762 45.6597V51.9266C156.762 52.0181 156.626 52.1553 156.536 52.1553H154.544C154.453 52.1553 154.317 52.0181 154.317 51.9266V36.5108C154.317 36.3736 154.453 36.2821 154.544 36.2821H156.536C156.626 36.2821 156.762 36.3736 156.762 36.5108V42.7778Z" fill="white"/>
<path fill-rule="evenodd" clip-rule="evenodd" d="M118.783 36.2825H133.768C133.904 36.2825 133.995 36.374 133.995 36.5113V38.4325C133.995 38.5697 133.904 38.6612 133.768 38.6612H127.475V51.927C127.475 52.0185 127.385 52.1557 127.249 52.1557H125.302C125.166 52.1557 125.031 52.0185 125.031 51.927V38.6612H118.783C118.647 38.6612 118.557 38.5697 118.557 38.4325V36.5113C118.557 36.374 118.647 36.2825 118.783 36.2825Z" fill="white"/>
<path fill-rule="evenodd" clip-rule="evenodd" d="M238.795 52.1557C234.766 52.1557 231.416 49.1824 230.872 45.3399H228.337V51.927C228.337 52.0185 228.201 52.1557 228.065 52.1557H226.119C225.983 52.1557 225.892 52.0185 225.892 51.927V45.2026C225.892 45.1569 225.892 45.1112 225.892 45.0654V43.1899C225.892 43.1442 225.892 43.0984 225.892 43.0527V36.5113C225.892 36.374 225.983 36.2825 226.119 36.2825H228.065C228.201 36.2825 228.337 36.374 228.337 36.5113V42.9154H230.872C231.506 39.1644 234.811 36.2825 238.795 36.2825C243.232 36.2825 246.853 39.8506 246.853 44.1963C246.853 48.5877 243.232 52.1557 238.795 52.1557ZM238.795 49.7771C235.716 49.7771 233.181 47.2611 233.181 44.1963C233.181 41.1314 235.716 38.6612 238.795 38.6612C241.919 38.6612 244.409 41.1314 244.409 44.1963C244.409 47.2611 241.919 49.7771 238.795 49.7771Z" fill="white"/>
<path fill-rule="evenodd" clip-rule="evenodd" d="M262.067 40.8569L263.742 39.8963C263.878 39.8506 263.923 39.7133 263.878 39.6219L263.833 39.5761C262.384 37.6091 260.03 36.2825 257.314 36.2825C252.877 36.2825 249.3 39.8506 249.3 44.1963C249.3 48.5877 252.877 52.1557 257.314 52.1557C260.03 52.1557 262.384 50.8292 263.878 48.8164C263.923 48.7249 263.878 48.5877 263.788 48.4962L262.067 47.5356C261.977 47.4898 261.841 47.5356 261.75 47.6271C260.709 48.9079 259.124 49.7771 257.314 49.7771C254.235 49.7771 251.7 47.2611 251.7 44.1963C251.7 41.1314 254.235 38.6612 257.314 38.6612C259.124 38.6612 260.709 39.4846 261.75 40.8112C261.841 40.9027 261.977 40.9484 262.067 40.8569Z" fill="white"/>
<path d="M42.5 63.2188C53.2696 63.2188 62 54.4883 62 43.7188C62 32.9492 53.2696 24.2188 42.5 24.2188C31.7304 24.2188 23 32.9492 23 43.7188C23 54.4883 31.7304 63.2188 42.5 63.2188Z" fill="#2C5E61"/>
<path fill-rule="evenodd" clip-rule="evenodd" d="M42.5 26.2188C37.6663 26.2206 33.2989 28.1799 30.1294 31.344L30.1251 31.3483C27.0392 34.4312 25.1027 38.6567 25.004 43.3421C25.0034 43.3675 25.0029 43.3929 25.0025 43.4183C24.9996 43.5933 24.9992 43.7693 25.0014 43.9445C25.0019 43.9815 25.0025 44.0185 25.0032 44.0554C25.092 48.7464 27.0324 53.0016 30.1294 56.0935C33.2989 59.2576 37.6663 61.2169 42.5 61.2188C47.3337 61.2169 51.7011 59.2576 54.8706 56.0935C57.5276 53.4409 59.3333 49.932 59.8489 46.0264C59.869 45.8738 59.8871 45.7207 59.9033 45.5669C60.0687 43.995 60.0224 42.4003 59.7649 40.8408C59.1563 37.1586 57.3988 33.868 54.8706 31.344C51.7011 28.1799 47.3337 26.2206 42.5 26.2188ZM42.5067 59.3139H42.5H42.4933C39.0847 59.3139 35.7469 58.1766 33.0444 56.1097C32.9196 56.0142 32.8491 55.8706 32.8548 55.7136C33.0889 49.3163 36.5532 33.7938 42.5 31.5218C47.9803 35.1941 51.2862 47.8132 52.2903 55.5481C52.3129 55.7214 52.2421 55.8905 52.1031 55.9964C49.3963 58.058 45.9049 59.3139 42.5067 59.3139ZM29.1294 51.0201C29.1073 51.212 28.8561 51.2653 28.7646 51.0952C27.6224 48.973 26.9566 46.5691 26.9081 44.0188C26.8213 39.4593 28.7981 35.2031 32.0045 32.2457C33.9615 30.4406 36.3766 29.1193 39.0601 28.5081C39.2804 28.458 39.3962 28.7752 39.2091 28.9019C34.067 32.3845 30.2264 41.4636 29.1294 51.0201ZM45.7952 28.8952C45.6067 28.7706 45.72 28.4588 45.9403 28.5094C53.204 30.1782 58.5297 37.1774 58.0649 44.6891C57.9213 47.0098 57.2661 49.1966 56.2089 51.1443C56.1196 51.3088 55.8768 51.2622 55.8458 51.0776C54.0142 40.1835 50.8633 32.2454 45.7952 28.8952Z" fill="white"/>
<path d="M44 42.2188H41C40.4477 42.2188 40 42.6665 40 43.2188V54.2188C40 54.7711 40.4477 55.2188 41 55.2188H44C44.5523 55.2188 45 54.7711 45 54.2188V43.2188C45 42.6665 44.5523 42.2188 44 42.2188Z" fill="white"/>
<path d="M48 46.2188H37C36.4477 46.2188 36 46.6665 36 47.2188V50.2188C36 50.7711 36.4477 51.2188 37 51.2188H48C48.5523 51.2188 49 50.7711 49 50.2188V47.2188C49 46.6665 48.5523 46.2188 48 46.2188Z" fill="white"/>
</svg>
