<svg width="30" height="23" viewBox="0 0 30 23" fill="none" xmlns="http://www.w3.org/2000/svg">
<path fill-rule="evenodd" clip-rule="evenodd" d="M0.780029 1C0.780029 0.44772 1.22775 0 1.78003 0H4.97161C5.91469 0 6.72962 0.6588 6.92722 1.58094L9.58843 14H24.0796L27.3523 5H10.78C10.2277 5 9.78003 4.55228 9.78003 4C9.78003 3.44772 10.2277 3 10.78 3H27.3523C28.7402 3 29.7062 4.37912 29.2319 5.6835L25.9592 14.6835C25.6717 15.4739 24.9206 16 24.0796 16H9.58843C8.64537 16 7.83044 15.3412 7.63284 14.4191L4.97161 2H1.78003C1.22775 2 0.780029 1.55228 0.780029 1ZM11.78 21C12.3323 21 12.78 20.5523 12.78 20C12.78 19.4477 12.3323 19 11.78 19C11.2277 19 10.78 19.4477 10.78 20C10.78 20.5523 11.2277 21 11.78 21ZM11.78 23C13.4369 23 14.78 21.6569 14.78 20C14.78 18.3431 13.4369 17 11.78 17C10.1231 17 8.78003 18.3431 8.78003 20C8.78003 21.6569 10.1231 23 11.78 23ZM22.78 20C22.78 20.5523 22.3323 21 21.78 21C21.2277 21 20.78 20.5523 20.78 20C20.78 19.4477 21.2277 19 21.78 19C22.3323 19 22.78 19.4477 22.78 20ZM24.78 20C24.78 21.6569 23.4369 23 21.78 23C20.1231 23 18.78 21.6569 18.78 20C18.78 18.3431 20.1231 17 21.78 17C23.4369 17 24.78 18.3431 24.78 20Z" fill="#2C5E61"/>
</svg>
